<?xml version="1.0" standalone="no"?><!DOCTYPE svg PUBLIC "-//W3C//DTD SVG 1.1//EN" "http://www.w3.org/Graphics/SVG/1.1/DTD/svg11.dtd"><svg t="1627869797148" class="icon" viewBox="0 0 1024 1024" version="1.1" xmlns="http://www.w3.org/2000/svg" p-id="1182" width="32" height="32" xmlns:xlink="http://www.w3.org/1999/xlink"><defs><style type="text/css"></style></defs><path d="M954.624 673.621333l-39.68-39.68c-0.768-0.938667-1.450667-1.962667-2.304-2.816L643.157333 361.642667l83.541334-77.653334a55.978667 55.978667 0 0 0 49.749333-15.445333 56.0384 56.0384 0 0 0 0-79.189333 56.0384 56.0384 0 0 0-79.189333 0 55.995733 55.995733 0 0 0-15.530667 49.066666l-83.882667 77.909334L328.277333 46.848c-0.768-0.768-1.706667-1.365333-2.56-2.048L290.389333 9.386667a32.034133 32.034133 0 0 0-45.226666 0 31.880533 31.880533 0 0 0 0 45.226666l15.957333 15.957334c-70.058667 80.810667-108.458667 182.954667-108.458667 290.986666 0 118.869333 46.336 230.656 130.389334 314.794667 54.528 54.528 120.832 93.098667 193.109333 113.493333-0.341333 1.792-0.512 3.584-0.512 5.376v164.693334h-60.245333c-17.664 0-32 14.336-32 32 0 17.664 14.336 32 32 32H599.893333c17.664 0 32-14.336 32-32 0-17.664-14.336-32-32-32h-60.245333V802.816c19.2 2.474667 38.570667 3.84 58.282667 3.84 108.032 0 210.176-38.314667 290.986666-108.458667l20.48 20.48c6.229333 6.229333 14.421333 9.386667 22.613334 9.386667a31.573333 31.573333 0 0 0 22.613333-9.386667c12.458667-12.288 12.458667-32.597333 0-45.056z m-356.778667 69.12c-101.802667 0-197.546667-39.68-269.568-111.616-72.021333-71.936-111.616-167.68-111.616-269.482666 0-57.514667 12.714667-113.066667 36.693334-163.498667l82.090666 82.090667c0.938667 1.706667 2.048 3.242667 3.413334 4.693333l422.4 421.12c-50.346667 24.064-105.898667 36.693333-163.413334 36.693333z m202.410667-58.112l-417.621333-416.426666a19.541333 19.541333 0 0 0-3.413334-4.608L274.773333 159.232c9.472-15.018667 20.053333-29.525333 31.658667-43.264l537.173333 537.088a395.332267 395.332267 0 0 1-43.349333 31.573333z" p-id="1183" fill="#808080"></path></svg>